<?xml version="1.0" encoding="utf-8"?>
<!-- Generator: Adobe Illustrator 24.0.2, SVG Export Plug-In . SVG Version: 6.00 Build 0)  -->
<svg version="1.1" id="Layer_1" xmlns="http://www.w3.org/2000/svg" xmlns:xlink="http://www.w3.org/1999/xlink" x="0px" y="0px"
	 viewBox="0 0 512 512" style="enable-background:new 0 0 512 512;" xml:space="preserve">
<style type="text/css">
	.st0{opacity:0.8;fill:url(#SVGID_1_);}
	.st1{fill:#FFFFFF;}
</style>
<g>
	<rect width="511" height="511"/>
	<radialGradient id="SVGID_1_" cx="6.5523" cy="-16.2847" r="732.2284" gradientUnits="userSpaceOnUse">
		<stop  offset="0" style="stop-color:#6D92FF;stop-opacity:0.97"/>
		<stop  offset="1" style="stop-color:#8B74FF;stop-opacity:0.9618"/>
		<stop  offset="1" style="stop-color:#916EFF;stop-opacity:0.9601"/>
		<stop  offset="1" style="stop-color:#A45BFF;stop-opacity:0.9549"/>
		<stop  offset="1" style="stop-color:#BE41FF;stop-opacity:0.9479"/>
		<stop  offset="1" style="stop-color:#FF00FF;stop-opacity:0.93"/>
	</radialGradient>
	<rect class="st0" width="511" height="511"/>
	<path class="st1" d="M291.4,360c72.9-4.4,127.5-25.6,127.5-97.2c0-71.9-54.9-131.9-128.2-146.5h0.1c0-19.8-14.2-26.5-14.2-26.5
		s-6.2,16.1-55.2,26.5h0.1c-73.3,14.6-128.2,74.6-128.2,146.5c0,75,59.8,94.7,138,97.8c3.8,14.9,20,34.6,34.1,77.8
		C291.6,404.9,287.9,360.2,291.4,360z M204.2,323.9c-13.9,0-25.1-11.3-25.1-25.1c0-13.9,11.3-25.1,25.1-25.1s25.1,11.3,25.1,25.1
		C229.3,312.7,218,323.9,204.2,323.9z M282.3,298.8c0-13.9,11.3-25.1,25.1-25.1s25.1,11.3,25.1,25.1c0,13.9-11.3,25.1-25.1,25.1
		S282.3,312.7,282.3,298.8z"/>
</g>
</svg>
