<?xml version="1.0" standalone="no"?>
<!DOCTYPE svg PUBLIC "-//W3C//DTD SVG 20010904//EN"
 "http://www.w3.org/TR/2001/REC-SVG-20010904/DTD/svg10.dtd">
<svg version="1.0" xmlns="http://www.w3.org/2000/svg"
 width="511.000000pt" height="511.000000pt" viewBox="0 0 511.000000 511.000000"
 preserveAspectRatio="xMidYMid meet">
<metadata>
Created by potrace 1.14, written by Peter Selinger 2001-2017
</metadata>
<g transform="translate(0.000000,511.000000) scale(0.100000,-0.100000)"
fill="#000000" stroke="none">
<path d="M0 2555 l0 -2555 2555 0 2555 0 0 2555 0 2555 -2555 0 -2555 0 0
-2555z m2814 1625 c43 -38 84 -118 92 -182 6 -46 8 -48 48 -58 223 -56 462
-165 616 -280 317 -238 524 -557 597 -917 24 -122 25 -409 0 -507 -43 -170
-109 -287 -225 -397 -108 -103 -228 -171 -402 -228 -131 -42 -356 -83 -538
-97 -106 -8 -95 7 -112 -144 -25 -205 -83 -399 -161 -536 -68 -118 -71 -119
-104 -27 -46 128 -123 298 -210 468 -45 88 -87 174 -93 192 -10 31 -12 31 -89
37 -43 4 -139 13 -214 21 -618 65 -960 291 -1061 700 -29 119 -32 374 -5 509
40 196 112 371 224 540 92 139 272 318 417 415 200 133 335 189 629 262 109
27 237 65 285 84 98 40 213 112 238 150 21 32 26 31 68 -5z"/>
<path d="M1957 2356 c-57 -21 -100 -58 -132 -117 -68 -125 -20 -274 110 -342
28 -15 59 -21 105 -21 108 0 201 63 236 161 30 85 8 191 -54 257 -62 66 -177
93 -265 62z"/>
<path d="M2995 2358 c-34 -12 -92 -53 -117 -83 -57 -67 -65 -209 -15 -284 108
-163 340 -153 429 18 66 126 14 276 -117 337 -54 26 -127 30 -180 12z"/>
</g>
</svg>
